# xmcd
#
# Track frame offsets:
#	150
#	13785
#	26995
#	45455
#	58585
#	74430
#	88628
#	104153
#	115190
#	130108
#	146648
#	166958
#	186768
#	198885
#	213125
#
# Disc length: 3057 seconds
#
# Revision: 1
# Processed by: cddbd v1.5.2PL0 Copyright (c) Steve Scherf et al.
# Submitted via: audiograbber 1.83.01
#
DISCID=d70bef0f
DTITLE=Julio Y Cesar - UN SEGUNDO EN LA VIDA DE JULIO Y CESAR
DYEAR=1996
DGENRE=Regional
TTITLE0=El Alkaseltzer - Cesar Lopez Baldez
TTITLE1=Lo que contigo aprendí - Cesar Valenzuela Ramos
TTITLE2=Quisiera hacerte felíz - Efraín Gutierrez
TTITLE3=La vacilona - Justino Jaime Veltrán
TTITLE4=Cuantas veces - Federico Corral Ochoa
TTITLE5=Donde quiera lavo y plancho - Guadalupe Lopez Barra
TTITLE6=Llegó el momento - guadalupe Lopez Barra
TTITLE7=Mis Dos Amores - Cesar Valenzuela Ramos
TTITLE8=Canto a Cajeme - Guadalupe Lopez Barra
TTITLE9=El amor es dolor - Gerardo Monroy
TTITLE10=Juramento Gitano - Carolina Valencia Cardenas
TTITLE11=A mi Guaymas - Rosendo Montiel Alvarez
TTITLE12=Chin-chín el que se raje - Guadalupe Lopez Barra
TTITLE13=Cuando estoy contigo - Mike Solorzano
TTITLE14=Como te voy a olvidar - José Corral Ochoa
EXTD=
EXTT0=
EXTT1=
EXTT2=
EXTT3=
EXTT4=
EXTT5=
EXTT6=
EXTT7=
EXTT8=
EXTT9=
EXTT10=
EXTT11=
EXTT12=
EXTT13=
EXTT14=
PLAYORDER=
